#!OML:ASF H:\Terrain\Patient Classification 1\Animal1\Tuesday\Animal1.ASF
:FULLY-SPECIFIED
:DEGREES
3057
root 1.66996 16.4261 -8.24767 21.175 -36.2197 -1.09417
lowerback 17.2444 4.16871 2.26382
upperback -2.19628 5.8334 -1.75533
thorax -11.7003 2.51534 -4.77439
lowerneck -2.59591 23.8475 8.19602
upperneck 2.2372 32.3638 -13.3034
head 4.48544 15.9119 -2.69759
rclavicle -1.78906e-014 7.95139e-016
rhumerus -0.351428 45.2491 -51.7787
rradius 73.5054
rwrist 3.04715
rhand -32.7327 -1039.29
rfingers 7.12502
rthumb -5.95618 10.8129
lclavicle -1.78906e-014 7.95139e-016
lhumerus -7.02561 22.3583 65.112
lradius 68.5568
lwrist -54.2673
lhand -19.5786 59.2367
lfingers 7.12502
lthumb 6.74658 1889.11
rfemur -59.6546 -6.54049 27.0385
rtibia 63.7159
rfoot 23.6058 7.00925
rtoes -27.0073
lfemur -60.1293 -10.2062 1.20779
ltibia 58.1771
lfoot 36.3456 -1.23277
ltoes 42.303
3058
root 1.64766 16.4163 -8.2552 20.8543 -34.991 -0.658839
lowerback 16.9282 4.19628 2.06022
upperback -2.08256 5.80888 -1.85277
thorax -11.3993 2.52852 -4.72134
lowerneck -2.09241 23.5981 8.3899
upperneck 1.37719 31.9971 -13.8332
head 4.22843 15.7778 -2.99859
rclavicle -1.80894e-014 -1.11319e-014
rhumerus -1.11366 45.0538 -52.169
rradius 73.6188
rwrist 3.32283
rhand -32.8629 -1040.56
rfingers 7.12502
rthumb -6.08185 9.55019
lclavicle -1.80894e-014 -1.11319e-014
lhumerus -6.42444 22.0347 65.1918
lradius 68.3316
lwrist -54.3335
lhand -20.034 58.4113
lfingers 7.12502
lthumb 6.30696 1888.3
rfemur -59.7366 -7.15434 26.834
rtibia 64.006
rfoot 23.9283 6.66911
rtoes -27.0443
lfemur -60.3937 -10.4901 0.891928
ltibia 58.0273
lfoot 36.4047 -1.55186
ltoes 43.3315
3059
root 1.62544 16.4201 -8.24944 20.4281 -33.8259 -0.88354
lowerback 17.1636 4.20061 2.3558
upperback -1.93155 5.88444 -1.78087
thorax -11.3365 2.55055 -4.83863
lowerneck -2.25702 23.3436 8.37006
upperneck 1.42853 31.6384 -13.693
head 4.20715 15.5949 -2.99273
rclavicle 1.39149e-015 4.53229e-014
rhumerus -1.65459 45.0188 -52.5219
rradius 73.5663
rwrist 3.45192
rhand -32.4353 -1041.8
rfingers 7.12502
rthumb -5.66904 8.29652
lclavicle 1.39149e-015 4.53229e-014
lhumerus -6.19951 21.6765 65.1691
lradius 68.1139
lwrist -54.2076
lhand -20.0281 58.2395
lfingers 7.12502
lthumb 6.31267 1888.13
rfemur -59.0553 -7.75888 27.1812
rtibia 64.1223
rfoot 24.0498 7.10549
rtoes -28.3635
lfemur -60.0162 -10.6999 0.955246
ltibia 57.8944
lfoot 36.2939 -2.78052
ltoes 42.9701
3060
root 1.60557 16.4258 -8.24893 20.3242 -32.6305 -1.27583
lowerback 17.3651 4.14307 2.67842
upperback -1.99609 5.89907 -1.63444
thorax -11.5088 2.53331 -4.88668
lowerneck -2.44185 23.2018 8.13482
upperneck 1.64898 31.4209 -13.1663
head 4.15832 15.483 -2.85334
rclavicle -3.4191e-014 1.78906e-014
rhumerus -2.0038 45.2322 -52.8377
rradius 73.2297
rwrist 3.64765
rhand -32.1401 -1041.71
rfingers 7.12502
rthumb -5.38401 8.38098
lclavicle -3.4191e-014 1.78906e-014
lhumerus -6.22595 21.2111 64.911
lradius 67.9983
lwrist -54.0693
lhand -19.7552 58.9008
lfingers 7.12502
lthumb 6.57614 1888.78
rfemur -58.5964 -8.25733 27.6659
rtibia 64.2259
rfoot 24.1971 7.24302
rtoes -29.0288
lfemur -59.9675 -10.8284 1.27043
ltibia 57.761
lfoot 36.2455 -4.23629
ltoes 40.6295
3061
root 1.58779 16.4235 -8.25108 20.3706 -31.3767 -1.30928
lowerback 17.1996 4.06108 2.78562
upperback -2.17126 5.82098 -1.58646
thorax -11.6135 2.48634 -4.87041
lowerneck -2.4486 23.1259 7.81544
upperneck 1.745 31.2867 -12.5988
head 4.0346 15.4262 -2.71737
rclavicle 3.29983e-014 -1.86858e-014
rhumerus -2.37386 45.5261 -53.046
rradius 72.933
rwrist 3.91222
rhand -31.9105 -1041.56
rfingers 7.12502
rthumb -5.16235 8.51923
lclavicle 3.29983e-014 -1.86858e-014
lhumerus -6.26971 20.82 64.7043
lradius 67.8362
lwrist -54.1085
lhand -19.6922 58.599
lfingers 7.12502
lthumb 6.63697 1888.48
rfemur -58.6507 -8.79654 27.8857
rtibia 64.3877
rfoot 24.6133 6.77805
rtoes -28.6116
lfemur -60.3452 -10.9589 1.36328
ltibia 57.5546
lfoot 36.3063 -5.27687
ltoes 36.4478
3062
root 1.56972 16.4196 -8.25011 20.1399 -30.1464 -1.17485
lowerback 17.144 3.9929 2.76499
upperback -2.24045 5.73087 -1.55232
thorax -11.6739 2.44374 -4.79819
lowerneck -2.34095 23.0223 7.77562
upperneck 1.82303 31.143 -12.3958
head 3.99006 15.3612 -2.69576
rclavicle 7.35503e-015 1.03368e-014
rhumerus -2.49391 45.8868 -52.9225
rradius 72.7397
rwrist 3.8165
rhand -31.6712 -1041.81
rfingers 7.12502
rthumb -4.93129 8.2704
lclavicle 7.35503e-015 1.03368e-014
lhumerus -6.34984 20.707 64.7721
lradius 67.7658
lwrist -54.3403
lhand -19.5383 57.5367
lfingers 7.12502
lthumb 6.7855 1887.41
rfemur -58.542 -9.42936 27.955
rtibia 64.5966
rfoot 25.0982 6.22879
rtoes -27.9404
lfemur -60.4524 -11.1977 1.24258
ltibia 57.257
lfoot 36.4922 -5.83464
ltoes 34.133
3063
root 1.55088 16.4193 -8.24844 19.8716 -28.9111 -1.02167
lowerback 17.1098 3.87067 2.7038
upperback -2.23184 5.55481 -1.54482
thorax -11.6669 2.36584 -4.70748
lowerneck -2.41073 22.8881 8.07931
upperneck 2.11233 30.9781 -12.395
head 4.11867 15.2657 -2.70825
rclavicle -3.98563e-014 2.22639e-014
rhumerus -2.203 46.3158 -52.5775
rradius 72.5538
rwrist 3.79572
rhand -31.8165 -1042.05
rfingers 7.12502
rthumb -5.07152 8.03171
lclavicle -3.98563e-014 2.22639e-014
lhumerus -6.27241 20.6808 64.8538
lradius 67.7815
lwrist -54.4604
lhand -19.4058 57.4304
lfingers 7.12502
lthumb 6.91343 1887.3
rfemur -58.3717 -10.1141 28.0143
rtibia 64.8082
rfoot 25.0027 6.39687
rtoes -29.0033
lfemur -60.5007 -11.5289 1.15323
ltibia 56.9005
lfoot 36.7755 -5.51255
ltoes 35.7295
3064
root 1.53343 16.4172 -8.2498 19.8421 -27.7538 -0.986171
lowerback 16.9866 3.78078 2.70265
upperback -2.26271 5.43225 -1.5532
thorax -11.6405 2.30945 -4.67572
lowerneck -2.62044 22.7581 8.16394
upperneck 2.42494 30.7987 -12.1576
head 4.20358 15.1629 -2.63753
rclavicle -5.79457e-014 7.95139e-015
rhumerus -1.90789 46.694 -52.2293
rradius 72.381
rwrist 3.99432
rhand -32.011 -1042.38
rfingers 7.12502
rthumb -5.25936 7.70509
lclavicle -5.79457e-014 7.95139e-015
lhumerus -6.00664 20.4335 64.9174
lradius 67.6878
lwrist -54.2616
lhand -19.482 58.2457
lfingers 7.12502
lthumb 6.83987 1888.12
rfemur -58.3916 -10.5998 28.1618
rtibia 64.9749
rfoot 24.7883 6.47967
rtoes -30.402
lfemur -60.721 -11.5762 1.09657
ltibia 56.6011
lfoot 37.0506 -5.40614
ltoes 37.8139
3065
root 1.51508 16.4148 -8.24952 19.7595 -26.5836 -1.06756
lowerback 17.0698 3.69229 2.79598
upperback -2.32363 5.34408 -1.49877
thorax -11.7633 2.25776 -4.65772
lowerneck -2.71331 22.6342 7.95455
upperneck 2.49987 30.6128 -11.8475
head 4.14355 15.0723 -2.56131
rclavicle -2.69353e-014 -1.59028e-015
rhumerus -1.70955 47.0613 -51.9205
rradius 72.3037
rwrist 4.08404
rhand -32.1453 -1042.54
rfingers 7.12502
rthumb -5.38901 7.5483
lclavicle -2.69353e-014 -1.59028e-015
lhumerus -5.8215 20.1498 65.0433
lradius 67.5852
lwrist -54.2289
lhand -19.4537 58.8967
lfingers 7.12502
lthumb 6.86724 1888.77
rfemur -58.2107 -10.9127 28.333
rtibia 65.081
rfoot 24.786 6.88689
rtoes -31.5275
lfemur -60.8449 -11.5695 1.07708
ltibia 56.4028
lfoot 37.3388 -6.36058
ltoes 37.4538
3066
root 1.49698 16.4199 -8.24521 19.7403 -25.332 -1.29269
lowerback 17.0442 3.51191 3.09182
upperback -2.37374 5.1742 -1.44362
thorax -11.8004 2.15831 -4.72084
lowerneck -2.4851 22.8783 7.4837
upperneck 2.09634 30.9108 -11.6517
head 3.91071 15.247 -2.50381
rclavicle 4.67144e-014 -7.15625e-015
rhumerus -1.48178 47.4577 -51.7194
rradius 72.3115
rwrist 4.32415
rhand -32.6145 -1042.78
rfingers 7.12502
rthumb -5.842 7.31681
lclavicle 4.67144e-014 -7.15625e-015
lhumerus -5.8107 19.8607 64.9223
lradius 67.734
lwrist -54.4766
lhand -18.9101 58.7643
lfingers 7.12502
lthumb 7.39197 1888.62
rfemur -57.9859 -11.2155 28.639
rtibia 65.1601
rfoot 25.0847 6.93203
rtoes -31.0443
lfemur -61.0073 -11.631 1.27397
ltibia 56.2368
lfoot 37.3427 -7.16069
ltoes 33.9406
3067
root 1.48019 16.4267 -8.24835 19.8229 -24.3522 -1.45083
lowerback 16.8846 3.40514 3.10659
upperback -2.46669 5.04084 -1.38215
thorax -11.8301 2.09569 -4.61955
lowerneck -2.72424 23.0782 7.73076
upperneck 2.59157 31.2052 -11.6013
head 4.15168 15.3652 -2.4087
rclavicle -1.25234e-014 -2.16675e-014
rhumerus -1.12003 47.9652 -51.4016
rradius 72.2899
rwrist 4.46027
rhand -32.8673 -1043.06
rfingers 7.12502
rthumb -6.08605 7.05076
lclavicle -1.25234e-014 -2.16675e-014
lhumerus -5.84714 19.4855 64.6615
lradius 67.8371
lwrist -54.6894
lhand -18.3568 58.5481
lfingers 7.12502
lthumb 7.92598 1888.38
rfemur -58.0353 -11.3075 28.8519
rtibia 65.2571
rfoot 26.2602 5.01201
rtoes -27.1765
lfemur -61.2275 -11.5786 1.45434
ltibia 56.0552
lfoot 37.2427 -7.32308
ltoes 31.7191
3068
root 1.46543 16.4291 -8.2491 19.633 -23.5577 -1.3889
lowerback 16.9889 3.36716 2.8663
upperback -2.52149 4.9492 -1.33074
thorax -11.9871 2.06364 -4.41709
lowerneck -1.86612 22.7137 7.94275
upperneck 1.54058 30.7027 -12.294
head 3.79902 15.1733 -2.81584
rclavicle 4.9895e-014 -2.62396e-014
rhumerus -0.767337 48.3815 -51.0073
rradius 72.2463
rwrist 4.45097
rhand -32.7079 -1042.63
rfingers 7.12502
rthumb -5.93218 7.47202
lclavicle 4.9895e-014 -2.62396e-014
lhumerus -5.73464 19.281 64.6724
lradius 67.6699
lwrist -54.6882
lhand -18.6653 58.7302
lfingers 7.12502
lthumb 7.62822 1888.57
rfemur -57.887 -11.3548 28.7546
rtibia 65.3728
rfoot 27.1857 3.72535
rtoes -24.4543
lfemur -61.209 -11.7757 1.48613
ltibia 55.7991
lfoot 37.2297 -7.0566
ltoes 32.9647
3069
root 1.45171 16.4265 -8.24223 19.4258 -22.5797 -1.46104
lowerback 17.143 3.27365 2.97096
upperback -2.51665 4.84972 -1.3377
thorax -12.0715 2.00528 -4.47082
lowerneck -1.95957 22.4827 8.08545
upperneck 1.52765 30.3822 -12.3094
head 3.80287 15.011 -2.85872
rclavicle 3.21037e-014 -1.03368e-014
rhumerus -0.648965 48.5214 -50.8274
rradius 72.2557
rwrist 4.57003
rhand -32.8308 -1042.09
rfingers 7.12502
rthumb -6.05091 8.013
lclavicle 3.21037e-014 -1.03368e-014
lhumerus -5.41212 19.2987 64.859
lradius 67.4708
lwrist -54.7835
lhand -19.31 58.4159
lfingers 7.12502
lthumb 7.00589 1888.28
rfemur -57.5253 -11.4914 28.7868
rtibia 65.491
rfoot 27.2345 3.95765
rtoes -25.7677
lfemur -61.1429 -12.0936 1.67406
ltibia 55.5061
lfoot 37.2122 -6.70896
ltoes 35.0805
3070
root 1.43452 16.4231 -8.23984 19.3766 -21.7453 -1.48338
lowerback 17.1148 3.24589 2.87909
upperback -2.5634 4.78798 -1.3834
thorax -12.1173 1.97859 -4.45428
lowerneck -2.4397 22.403 8.08552
upperneck 1.97778 30.2573 -11.8719
head 3.93152 14.9237 -2.68827
rclavicle -1.78906e-014 6.75868e-015
rhumerus -0.598376 48.6649 -50.6959
rradius 72.341
rwrist 4.62593
rhand -32.829 -1042.11
rfingers 7.12502
rthumb -6.0491 7.99377
lclavicle -1.78906e-014 6.75868e-015
lhumerus -5.26204 18.9793 64.8306
lradius 67.375
lwrist -54.811
lhand -19.7004 58.1669
lfingers 7.12502
lthumb 6.62905 1888.04
rfemur -57.3586 -11.4651 28.7686
rtibia 65.6472
rfoot 27.3141 3.41871
rtoes -26.8008
lfemur -61.1262 -12.1393 1.69016
ltibia 55.2351
lfoot 37.0531 -7.04292
ltoes 35.4156
